<svg width="100" height="100" viewBox="0 0 100 100" xmlns="http://www.w3.org/2000/svg">
  <path d="M10,10 L30,10 L30,30 L50,30 L50,50 L70,50 L70,70 L90,70" fill="none" stroke="#ffffff" stroke-width="1"/>
  <path d="M90,10 L70,10 L70,30 L50,30 L50,50 L30,50 L30,70 L10,70" fill="none" stroke="#ffffff" stroke-width="1"/>
  <circle cx="10" cy="10" r="2" fill="#ffffff"/>
  <circle cx="30" cy="10" r="2" fill="#ffffff"/>
  <circle cx="30" cy="30" r="2" fill="#ffffff"/>
  <circle cx="50" cy="30" r="2" fill="#ffffff"/>
  <circle cx="50" cy="50" r="2" fill="#ffffff"/>
  <circle cx="70" cy="50" r="2" fill="#ffffff"/>
  <circle cx="70" cy="70" r="2" fill="#ffffff"/>
  <circle cx="90" cy="70" r="2" fill="#ffffff"/>
  <circle cx="90" cy="10" r="2" fill="#ffffff"/>
  <circle cx="70" cy="10" r="2" fill="#ffffff"/>
  <circle cx="70" cy="30" r="2" fill="#ffffff"/>
  <circle cx="50" cy="30" r="2" fill="#ffffff"/>
  <circle cx="50" cy="50" r="2" fill="#ffffff"/>
  <circle cx="30" cy="50" r="2" fill="#ffffff"/>
  <circle cx="30" cy="70" r="2" fill="#ffffff"/>
  <circle cx="10" cy="70" r="2" fill="#ffffff"/>
</svg>

